<svg id="svg" version="1.1" xmlns="http://www.w3.org/2000/svg" xmlns:xlink="http://www.w3.org/1999/xlink" width="400" height="386.8656716417911" viewBox="0, 0, 400,386.8656716417911"><g id="svgg"><path id="path0" d="M195.934 3.927 C 193.698 4.115,191.520 4.416,191.094 4.597 C 190.668 4.778,189.274 5.241,187.996 5.628 C 175.886 9.289,167.519 17.494,160.960 32.139 C 160.087 34.090,158.478 37.532,155.080 44.724 C 154.376 46.215,153.241 48.654,152.559 50.145 C 150.698 54.212,148.858 58.135,146.326 63.434 C 145.072 66.058,144.046 68.269,144.046 68.348 C 144.046 68.428,143.329 70.027,142.452 71.904 C 138.787 79.741,137.745 81.977,137.070 83.446 C 136.679 84.298,135.126 87.579,133.620 90.738 C 132.113 93.897,130.881 96.532,130.881 96.595 C 130.881 96.658,129.945 98.691,128.800 101.113 C 127.656 103.536,126.325 106.389,125.843 107.454 C 125.361 108.519,124.189 111.045,123.238 113.069 C 122.287 115.092,121.069 117.706,120.531 118.877 C 119.992 120.048,118.616 122.989,117.472 125.411 C 116.328 127.834,115.392 129.867,115.392 129.929 C 115.392 129.992,114.285 132.366,112.932 135.206 C 110.470 140.373,109.503 142.438,107.339 147.144 C 106.703 148.529,105.358 151.404,104.351 153.533 C 103.344 155.663,102.001 158.538,101.367 159.923 C 99.062 164.949,97.870 167.526,96.618 170.184 C 95.916 171.675,94.782 174.114,94.098 175.605 C 93.414 177.096,91.933 180.232,90.806 182.575 C 89.680 184.918,87.800 188.925,86.629 191.481 C 85.458 194.037,83.958 197.289,83.296 198.707 C 82.633 200.126,82.091 201.477,82.091 201.708 C 82.091 201.940,81.960 202.130,81.801 202.131 C 81.641 202.132,81.176 202.960,80.767 203.970 C 80.358 204.981,79.116 207.725,78.009 210.068 C 76.901 212.410,75.602 215.198,75.122 216.263 C 74.070 218.598,71.706 223.656,69.692 227.880 C 68.879 229.584,67.785 231.936,67.261 233.107 C 66.737 234.279,65.482 236.980,64.472 239.109 C 60.160 248.207,59.245 250.166,59.245 250.299 C 59.245 250.426,57.106 254.998,53.067 263.504 C 52.258 265.208,51.119 267.648,50.536 268.925 C 49.469 271.261,48.474 273.395,45.114 280.542 C 44.112 282.672,42.509 286.157,41.551 288.287 C 40.593 290.416,38.848 294.163,37.674 296.612 C 36.500 299.061,35.106 302.023,34.576 303.195 C 34.046 304.366,33.039 306.544,32.337 308.035 C 31.057 310.753,28.515 316.265,27.872 317.715 C 27.683 318.141,26.649 320.378,25.575 322.686 C 24.500 324.994,23.621 326.944,23.621 327.020 C 23.621 327.143,22.253 330.059,17.906 339.206 C 17.147 340.803,15.964 343.330,15.277 344.821 C 14.590 346.312,13.292 349.100,12.391 351.016 C 9.946 356.220,8.357 359.655,7.194 362.246 C 6.621 363.524,5.951 364.975,5.705 365.470 C 3.604 369.709,6.473 377.018,11.282 379.682 L 13.359 380.833 60.600 380.833 L 107.841 380.833 109.271 379.739 C 110.668 378.670,111.319 377.526,114.596 370.378 C 116.018 367.276,116.725 365.740,118.606 361.665 C 119.343 360.068,120.403 357.759,120.960 356.534 C 124.201 349.421,124.108 349.625,127.668 341.917 C 128.504 340.106,129.686 337.536,130.296 336.205 L 131.404 333.785 200.948 333.785 L 270.492 333.785 271.143 335.044 C 271.951 336.603,276.476 346.212,276.476 346.367 C 276.476 346.429,277.625 348.894,279.029 351.846 C 280.432 354.797,282.111 358.345,282.758 359.729 C 284.025 362.439,285.701 366.002,288.827 372.634 C 289.914 374.940,290.803 376.948,290.803 377.098 C 290.803 377.634,293.035 379.797,294.222 380.411 C 296.130 381.398,388.762 381.166,390.522 380.170 C 396.951 376.534,398.879 369.985,395.570 363.020 C 394.761 361.317,393.616 358.877,393.026 357.599 C 392.436 356.321,391.042 353.359,389.929 351.016 C 387.863 346.671,386.395 343.558,383.171 336.689 C 382.172 334.560,380.859 331.772,380.253 330.494 C 377.001 323.628,374.831 318.957,374.831 318.821 C 374.831 318.737,374.113 317.147,373.236 315.287 C 370.753 310.024,369.219 306.751,367.659 303.388 C 366.868 301.684,365.388 298.548,364.370 296.418 C 362.621 292.761,361.169 289.684,357.793 282.478 C 355.923 278.488,353.424 273.159,351.754 269.603 C 351.029 268.059,349.806 265.445,349.036 263.795 C 348.266 262.144,346.804 259.051,345.787 256.922 C 343.935 253.046,341.960 248.843,339.599 243.756 C 338.907 242.265,337.595 239.477,336.684 237.561 C 335.137 234.308,333.979 231.843,330.586 224.589 C 329.838 222.991,328.405 219.942,327.401 217.812 C 326.396 215.682,325.003 212.720,324.305 211.229 C 323.027 208.503,321.371 204.994,317.816 197.483 C 315.838 193.306,314.305 190.028,312.111 185.286 C 311.422 183.795,310.193 181.181,309.381 179.477 C 307.621 175.783,304.806 169.815,302.805 165.537 C 302.008 163.833,300.660 160.958,299.809 159.148 C 298.958 157.338,297.698 154.637,297.007 153.146 C 295.041 148.900,293.178 144.928,291.375 141.142 C 290.462 139.226,288.935 136.002,287.981 133.979 C 287.028 131.955,285.466 128.645,284.510 126.621 C 283.554 124.598,282.206 121.723,281.516 120.232 C 280.825 118.742,279.476 115.866,278.517 113.843 C 274.506 105.379,273.796 103.868,272.878 101.839 C 272.348 100.668,270.755 97.270,269.338 94.288 C 267.921 91.307,266.515 88.345,266.215 87.706 C 265.914 87.067,264.638 84.366,263.379 81.704 C 259.207 72.882,258.362 71.076,257.308 68.732 C 256.733 67.454,255.391 64.579,254.325 62.343 C 251.491 56.396,249.627 52.456,248.095 49.177 C 247.349 47.580,245.834 44.356,244.728 42.014 C 243.623 39.671,242.143 36.534,241.440 35.044 C 235.864 23.220,234.255 20.511,230.435 16.508 C 225.820 11.672,218.823 7.272,213.166 5.648 C 211.888 5.282,210.481 4.837,210.039 4.660 C 209.598 4.483,207.855 4.228,206.167 4.092 C 204.479 3.957,202.401 3.788,201.549 3.716 C 200.697 3.644,198.170 3.738,195.934 3.927 M204.840 18.759 C 209.937 19.741,213.247 21.246,217.048 24.308 C 221.335 27.762,222.940 30.226,228.075 41.239 C 228.968 43.156,230.361 46.118,231.168 47.822 C 234.746 55.368,236.592 59.321,236.592 59.435 C 236.592 59.503,237.787 62.058,239.247 65.113 C 240.707 68.168,242.520 71.975,243.275 73.572 C 247.167 81.805,248.431 84.488,249.750 87.318 C 250.545 89.022,251.936 91.985,252.843 93.901 C 253.750 95.818,254.982 98.432,255.580 99.710 C 256.179 100.987,257.485 103.775,258.483 105.905 C 259.481 108.035,260.738 110.736,261.277 111.907 C 261.816 113.078,263.211 116.041,264.377 118.490 C 265.543 120.939,267.105 124.250,267.848 125.847 C 268.591 127.444,269.859 130.145,270.667 131.849 C 271.474 133.553,273.002 136.776,274.062 139.013 C 275.122 141.249,276.383 143.950,276.864 145.015 C 277.344 146.079,278.605 148.780,279.665 151.016 C 280.725 153.253,282.250 156.476,283.054 158.180 C 283.858 159.884,285.339 163.020,286.344 165.150 C 287.349 167.280,288.747 170.242,289.451 171.733 C 290.154 173.224,291.373 175.837,292.159 177.541 C 293.791 181.080,295.521 184.764,298.160 190.319 C 299.172 192.449,300.480 195.237,301.067 196.515 C 301.654 197.793,303.092 200.842,304.262 203.291 C 306.994 209.009,309.590 214.531,310.817 217.231 C 312.050 219.945,313.236 222.452,317.107 230.530 C 318.826 234.117,320.232 237.105,320.232 237.170 C 320.232 237.234,321.210 239.353,322.405 241.877 C 327.033 251.650,327.551 252.750,328.851 255.566 C 329.589 257.164,330.896 259.952,331.757 261.762 C 336.488 271.714,338.045 275.029,338.045 275.155 C 338.045 275.232,339.070 277.434,340.323 280.048 C 341.576 282.663,343.255 286.196,344.053 287.899 C 344.852 289.603,346.245 292.565,347.149 294.482 C 348.053 296.399,349.528 299.535,350.427 301.452 C 351.326 303.369,352.754 306.391,353.600 308.167 C 354.446 309.943,355.044 311.642,354.929 311.942 C 354.814 312.242,354.883 312.488,355.083 312.488 C 355.283 312.488,355.874 313.423,356.397 314.565 C 356.919 315.707,357.605 316.741,357.921 316.862 C 358.236 316.983,358.612 317.660,358.756 318.367 C 358.900 319.073,359.692 321.045,360.515 322.749 C 363.637 329.210,373.282 349.698,373.282 349.870 C 373.282 349.931,374.771 353.090,376.590 356.888 C 381.148 366.402,380.993 366.051,380.782 366.393 C 380.678 366.561,362.910 366.699,341.297 366.699 L 302.001 366.699 300.902 364.279 C 300.298 362.948,299.065 360.290,298.162 358.374 C 297.259 356.457,295.950 353.669,295.253 352.178 C 294.556 350.687,292.990 347.377,291.774 344.821 C 290.557 342.265,289.128 339.216,288.598 338.045 C 287.588 335.812,286.802 334.133,283.337 326.815 C 280.966 321.809,279.511 320.116,277.044 319.495 C 274.675 318.898,127.077 318.899,124.879 319.495 C 121.779 320.337,120.944 321.595,115.398 333.785 C 112.629 339.873,111.718 341.848,109.531 346.513 C 108.495 348.722,107.648 350.583,107.648 350.648 C 107.648 350.767,106.153 354.032,103.534 359.632 C 102.762 361.283,101.719 363.548,101.215 364.666 L 100.300 366.699 61.015 366.699 C 39.408 366.699,21.651 366.568,21.555 366.409 C 21.459 366.249,21.756 365.334,22.215 364.376 C 22.675 363.417,23.813 360.978,24.745 358.955 C 26.314 355.550,28.859 350.074,30.595 346.370 C 32.929 341.391,36.370 333.983,38.346 329.685 C 38.992 328.281,40.017 326.714,40.626 326.202 C 41.278 325.654,41.838 324.712,41.988 323.913 C 42.128 323.167,42.395 322.556,42.581 322.556 C 42.768 322.556,43.035 322.033,43.175 321.394 C 43.316 320.755,43.591 320.232,43.787 320.232 C 43.983 320.232,44.143 319.830,44.143 319.338 C 44.143 318.847,44.399 318.106,44.712 317.693 C 45.024 317.279,45.286 316.657,45.293 316.311 C 45.299 315.964,45.562 315.467,45.876 315.207 C 46.189 314.947,46.552 314.097,46.681 313.320 C 47.002 311.387,47.532 310.079,50.626 303.582 C 52.097 300.494,53.617 297.270,54.004 296.418 C 54.391 295.566,55.532 293.127,56.540 290.997 C 57.547 288.867,58.764 286.254,59.245 285.189 C 59.726 284.124,60.945 281.510,61.955 279.380 C 62.966 277.251,64.181 274.637,64.655 273.572 C 65.130 272.507,66.269 270.068,67.185 268.151 C 68.101 266.234,69.391 263.490,70.050 262.052 C 71.975 257.856,73.359 254.879,75.468 250.406 C 76.555 248.100,77.444 246.158,77.444 246.092 C 77.444 246.025,78.592 243.555,79.994 240.604 C 81.396 237.652,83.152 233.930,83.896 232.333 C 84.640 230.736,85.661 228.558,86.164 227.493 C 86.668 226.428,87.804 223.988,88.689 222.072 C 91.937 215.041,92.300 214.259,94.004 210.649 C 94.958 208.625,96.257 205.837,96.889 204.453 C 98.192 201.602,100.073 197.575,102.226 193.030 C 103.033 191.326,104.128 188.974,104.659 187.803 C 106.079 184.669,107.908 180.731,109.873 176.573 C 110.830 174.550,112.201 171.631,112.921 170.087 C 113.641 168.543,114.861 165.929,115.631 164.279 C 116.402 162.628,117.514 160.232,118.103 158.955 C 119.865 155.128,121.971 150.604,123.330 147.725 C 124.034 146.234,125.042 144.056,125.571 142.885 C 126.099 141.713,127.404 138.925,128.469 136.689 C 129.535 134.453,130.968 131.404,131.654 129.913 C 132.340 128.422,133.476 125.983,134.179 124.492 C 135.698 121.266,137.565 117.236,139.022 114.037 C 140.072 111.731,142.171 107.236,144.629 102.033 C 145.981 99.168,148.149 94.529,150.236 90.029 C 151.510 87.282,152.891 84.333,155.855 78.025 C 156.756 76.108,157.850 73.756,158.286 72.798 C 158.723 71.839,159.813 69.487,160.709 67.570 C 161.605 65.653,162.945 62.778,163.687 61.181 C 164.429 59.584,165.695 56.883,166.501 55.179 C 167.307 53.475,168.528 50.862,169.214 49.371 C 170.856 45.806,172.591 42.095,174.784 37.457 C 175.768 35.377,176.573 33.571,176.573 33.443 C 176.573 32.964,180.156 27.846,181.343 26.630 C 184.701 23.189,188.657 20.745,192.643 19.645 C 198.487 18.034,200.368 17.897,204.840 18.759 M198.064 159.793 C 195.988 160.890,195.479 161.591,192.979 166.805 C 191.623 169.631,190.513 172.008,190.513 172.085 C 190.513 172.792,184.585 184.388,184.135 184.561 C 183.809 184.685,183.543 185.179,183.543 185.657 C 183.543 186.134,183.101 187.356,182.561 188.372 C 182.021 189.388,181.475 190.982,181.347 191.915 C 181.219 192.848,180.964 193.611,180.780 193.611 C 180.596 193.611,180.445 193.969,180.445 194.408 C 180.445 194.846,180.030 195.948,179.523 196.856 C 179.016 197.765,178.479 199.062,178.331 199.738 C 178.182 200.415,177.910 200.968,177.725 200.968 C 177.541 200.968,177.127 201.447,176.806 202.033 C 175.973 203.551,172.438 210.774,171.072 213.746 C 170.436 215.131,169.252 217.657,168.441 219.361 C 167.083 222.217,166.111 224.313,163.506 230.010 C 162.970 231.181,161.703 233.883,160.691 236.014 C 155.720 246.478,155.624 248.923,160.062 252.138 L 161.588 253.243 200.840 253.243 L 240.093 253.243 241.592 252.296 C 245.510 249.823,246.060 245.771,243.239 240.162 C 242.352 238.398,241.626 236.890,241.626 236.810 C 241.626 236.671,239.163 231.291,237.184 227.106 C 235.009 222.506,232.720 217.529,232.720 217.400 C 232.720 217.323,231.784 215.293,230.640 212.889 C 229.496 210.486,228.172 207.648,227.698 206.583 C 227.225 205.518,226.157 203.213,225.326 201.460 C 224.494 199.707,223.814 197.921,223.814 197.491 C 223.814 197.061,223.654 196.709,223.458 196.709 C 223.262 196.709,222.986 196.186,222.846 195.547 C 222.706 194.908,222.451 194.385,222.279 194.385 C 222.108 194.385,221.848 193.427,221.701 192.256 C 221.555 191.084,221.293 190.126,221.120 190.126 C 220.730 190.126,218.393 185.617,218.393 184.865 C 218.393 184.564,218.174 184.318,217.907 184.318 C 217.639 184.318,217.179 183.751,216.883 183.059 C 216.588 182.367,215.695 180.407,214.899 178.703 C 214.104 176.999,212.269 172.991,210.821 169.797 C 206.238 159.682,203.032 157.168,198.064 159.793 M201.644 184.802 C 201.855 185.068,202.729 186.854,203.586 188.771 C 204.443 190.687,205.685 193.432,206.347 194.869 C 207.856 198.146,210.807 204.582,212.828 209.003 C 213.388 210.227,214.695 213.030,215.732 215.232 C 216.770 217.433,217.619 219.290,217.619 219.359 C 217.619 219.427,218.379 221.111,219.308 223.101 C 220.237 225.090,221.393 227.590,221.875 228.654 C 222.358 229.719,223.514 232.213,224.445 234.196 C 225.376 236.178,226.137 238.052,226.137 238.358 C 226.137 238.838,222.616 238.916,200.968 238.916 C 172.924 238.916,175.017 239.143,176.544 236.258 C 177.280 234.866,179.374 230.437,181.664 225.426 C 184.026 220.258,184.836 218.514,186.641 214.714 C 189.416 208.873,191.088 205.313,192.413 202.420 C 194.350 198.193,195.727 195.224,197.754 190.900 C 198.803 188.664,199.910 186.268,200.215 185.576 C 200.821 184.201,201.064 184.069,201.644 184.802 " stroke="none" fill="#060606" fill-rule="evenodd"></path><path id="path1" d="M0.000 193.611 L 0.000 387.222 200.000 387.222 L 400.000 387.222 400.000 193.611 L 400.000 0.000 200.000 0.000 L 0.000 0.000 0.000 193.611 M209.487 4.132 C 214.933 5.382,223.848 9.418,224.524 10.939 C 224.595 11.099,224.882 11.229,225.161 11.229 C 227.283 11.229,235.760 21.807,238.816 28.267 C 242.439 35.927,243.908 39.048,244.921 41.239 C 245.512 42.517,246.776 45.218,247.731 47.241 C 248.685 49.264,249.948 51.965,250.536 53.243 C 251.124 54.521,252.477 57.396,253.542 59.632 C 254.607 61.868,256.043 64.918,256.733 66.409 C 257.423 67.899,258.729 70.687,259.635 72.604 C 264.402 82.689,265.978 86.039,268.743 91.965 C 269.339 93.243,270.692 96.118,271.749 98.354 C 274.598 104.382,275.315 106.012,275.315 106.465 C 275.315 106.689,275.489 106.873,275.702 106.873 C 275.915 106.873,276.089 107.058,276.089 107.283 C 276.089 107.670,276.928 109.512,280.927 117.909 C 281.840 119.826,283.318 122.962,284.212 124.879 C 286.662 130.131,288.467 133.924,289.697 136.404 C 290.305 137.632,290.803 138.881,290.803 139.180 C 290.803 139.478,290.937 139.781,291.100 139.852 C 291.263 139.923,291.986 141.288,292.707 142.885 C 293.428 144.482,294.930 147.706,296.044 150.048 C 297.158 152.391,298.682 155.615,299.430 157.212 C 302.366 163.484,303.944 166.841,305.526 170.184 C 306.434 172.101,307.652 174.714,308.233 175.992 C 308.815 177.270,310.203 180.232,311.319 182.575 C 314.143 188.503,315.555 191.498,320.581 202.227 C 322.206 205.695,323.784 209.051,326.998 215.876 C 330.266 222.815,331.353 225.129,332.547 227.686 C 334.129 231.075,337.770 238.787,339.585 242.594 C 341.217 246.018,343.034 249.893,345.216 254.598 C 346.005 256.302,347.523 259.526,348.588 261.762 C 349.654 263.998,350.956 266.786,351.483 267.957 C 352.010 269.129,353.190 271.655,354.106 273.572 C 360.441 286.827,361.278 288.654,361.278 289.233 C 361.278 289.458,361.452 289.642,361.665 289.642 C 361.878 289.642,362.052 289.841,362.052 290.084 C 362.052 290.327,362.859 292.201,363.845 294.247 C 364.832 296.293,366.243 299.274,366.983 300.871 C 367.722 302.469,369.072 305.344,369.981 307.260 C 371.798 311.090,373.539 314.835,374.750 317.522 C 375.822 319.897,378.201 324.985,380.636 330.106 C 381.749 332.449,383.145 335.411,383.738 336.689 C 384.948 339.299,387.723 345.198,389.932 349.855 C 390.741 351.559,392.009 354.259,392.751 355.857 C 393.493 357.454,394.855 360.329,395.779 362.246 C 399.467 369.897,397.483 377.166,390.796 380.500 L 388.577 381.607 341.917 381.607 C 298.890 381.607,295.164 381.556,294.066 380.954 C 292.792 380.257,290.029 377.398,290.029 376.778 C 290.029 376.573,289.177 374.613,288.135 372.423 C 287.093 370.233,285.552 366.960,284.711 365.150 C 283.870 363.340,282.730 360.900,282.179 359.729 C 281.628 358.558,280.400 355.944,279.449 353.921 C 278.499 351.897,276.982 348.674,276.078 346.757 C 275.175 344.840,273.748 341.791,272.908 339.981 C 272.068 338.170,271.113 336.123,270.786 335.431 L 270.192 334.172 200.968 334.172 L 131.744 334.172 131.157 335.431 C 130.835 336.123,129.668 338.693,128.564 341.142 C 127.460 343.591,126.064 346.641,125.462 347.919 C 124.860 349.197,123.980 351.113,123.507 352.178 C 122.147 355.239,120.462 358.919,119.075 361.859 C 117.329 365.558,115.392 369.825,115.392 369.971 C 115.392 370.527,111.358 378.347,110.667 379.129 C 108.308 381.801,112.234 381.607,60.600 381.607 L 14.134 381.607 11.916 380.567 C 7.692 378.588,5.021 374.706,4.728 370.122 C 4.544 367.242,4.853 366.059,6.987 361.479 C 7.783 359.771,9.042 357.067,9.787 355.470 C 10.531 353.872,11.700 351.346,12.386 349.855 C 13.794 346.794,15.451 343.253,17.730 338.432 C 19.177 335.371,20.307 332.929,22.747 327.590 C 23.282 326.418,24.656 323.478,25.800 321.055 C 26.944 318.633,27.880 316.596,27.880 316.528 C 27.880 316.461,28.597 314.871,29.473 312.995 C 30.348 311.119,32.069 307.406,33.295 304.743 C 34.521 302.081,36.390 298.074,37.446 295.837 C 38.503 293.601,40.047 290.290,40.877 288.480 C 41.706 286.670,42.496 285.102,42.631 284.995 C 42.766 284.889,43.011 284.366,43.174 283.833 C 43.338 283.301,44.213 281.297,45.118 279.380 C 46.024 277.464,47.409 274.501,48.197 272.798 C 48.985 271.094,50.122 268.654,50.724 267.377 C 51.327 266.099,52.428 263.746,53.172 262.149 C 55.970 256.140,57.655 252.546,59.435 248.790 C 62.495 242.331,63.777 239.588,64.682 237.561 C 65.157 236.496,66.324 233.969,67.275 231.946 C 68.226 229.923,69.436 227.309,69.964 226.137 C 70.493 224.966,71.590 222.614,72.402 220.910 C 74.415 216.686,76.356 212.535,77.833 209.293 C 78.512 207.803,79.732 205.189,80.542 203.485 C 81.353 201.781,82.572 199.167,83.251 197.677 C 84.675 194.551,86.505 190.636,88.860 185.673 C 89.769 183.756,91.076 180.968,91.765 179.477 C 92.453 177.986,93.419 175.895,93.913 174.831 C 94.406 173.766,95.414 171.588,96.153 169.990 C 96.893 168.393,98.213 165.586,99.088 163.752 C 99.962 161.918,100.678 160.219,100.678 159.976 C 100.678 159.734,100.852 159.535,101.065 159.535 C 101.278 159.535,101.452 159.279,101.452 158.966 C 101.452 158.654,101.789 157.739,102.200 156.934 C 103.013 155.341,106.241 148.504,107.645 145.402 C 108.127 144.337,109.457 141.499,110.601 139.095 C 111.745 136.692,112.682 134.647,112.682 134.552 C 112.682 134.457,113.466 132.746,114.424 130.749 C 115.382 128.752,116.167 126.920,116.167 126.677 C 116.167 126.433,116.341 126.234,116.554 126.234 C 116.767 126.234,116.941 125.975,116.941 125.659 C 116.941 125.343,117.455 124.079,118.083 122.852 C 119.307 120.458,121.230 116.356,125.571 106.873 C 126.302 105.276,127.643 102.401,128.549 100.484 C 130.880 95.557,132.522 92.057,134.179 88.480 C 134.968 86.776,136.187 84.163,136.889 82.672 C 137.591 81.181,138.808 78.567,139.593 76.864 C 140.379 75.160,141.615 72.528,142.341 71.015 C 143.066 69.501,143.659 68.064,143.659 67.820 C 143.659 67.576,143.833 67.377,144.046 67.377 C 144.259 67.377,144.434 67.193,144.434 66.968 C 144.434 66.553,145.065 65.085,147.338 60.213 C 148.033 58.722,149.249 56.108,150.040 54.405 C 150.830 52.701,152.051 50.087,152.753 48.596 C 153.454 47.106,154.651 44.545,155.412 42.907 C 156.173 41.269,157.511 38.394,158.385 36.518 C 159.260 34.642,160.294 32.410,160.683 31.559 C 164.585 23.020,166.311 20.291,170.672 15.765 C 175.050 11.220,181.331 7.260,187.028 5.451 C 188.412 5.012,190.132 4.458,190.849 4.221 C 194.260 3.092,204.737 3.042,209.487 4.132 M195.547 19.336 C 190.635 20.516,188.007 21.739,184.511 24.474 C 180.371 27.712,178.583 30.368,174.136 39.884 C 173.191 41.907,171.804 44.869,171.055 46.467 C 168.733 51.420,168.054 52.992,168.054 53.415 C 168.054 53.640,167.880 53.824,167.667 53.824 C 167.454 53.824,167.280 54.023,167.280 54.267 C 167.280 54.511,166.690 55.949,165.969 57.462 C 162.981 63.734,160.644 68.754,158.650 73.185 C 158.123 74.356,156.904 76.970,155.941 78.993 C 154.978 81.016,153.756 83.630,153.226 84.802 C 152.238 86.984,149.965 91.844,146.886 98.354 C 145.929 100.378,144.828 102.730,144.439 103.582 C 142.744 107.291,140.393 112.332,139.021 115.198 C 136.115 121.268,135.140 123.447,135.140 123.869 C 135.140 124.105,134.966 124.298,134.753 124.298 C 134.540 124.298,134.366 124.482,134.366 124.707 C 134.366 125.137,133.575 126.982,131.470 131.462 C 130.769 132.953,129.459 135.741,128.558 137.657 C 127.657 139.574,126.346 142.362,125.646 143.853 C 124.945 145.344,123.984 147.435,123.511 148.500 C 123.037 149.564,121.913 152.004,121.012 153.921 C 120.111 155.837,118.892 158.451,118.304 159.729 C 117.716 161.007,116.404 163.795,115.390 165.924 C 114.375 168.054,112.986 171.016,112.303 172.507 C 111.619 173.998,110.486 176.438,109.784 177.928 C 109.081 179.419,107.943 181.859,107.254 183.349 C 106.564 184.840,105.258 187.628,104.351 189.545 C 102.527 193.400,100.837 197.052,99.512 200.000 C 99.033 201.065,97.772 203.766,96.708 206.002 C 95.644 208.238,94.258 211.200,93.628 212.585 C 92.998 213.969,91.989 216.147,91.386 217.425 C 90.783 218.703,89.559 221.317,88.666 223.233 C 84.981 231.144,81.859 237.828,80.165 241.433 C 79.564 242.711,78.512 244.976,77.825 246.467 C 77.139 247.957,75.833 250.745,74.923 252.662 C 72.339 258.106,70.624 261.785,69.687 263.892 C 69.214 264.956,68.044 267.483,67.087 269.506 C 66.131 271.530,64.656 274.666,63.809 276.476 C 62.963 278.287,61.779 280.813,61.179 282.091 C 60.579 283.369,59.532 285.634,58.854 287.125 C 58.176 288.616,56.758 291.665,55.703 293.901 C 54.648 296.137,53.543 298.490,53.247 299.129 C 52.950 299.768,51.900 302.033,50.913 304.163 C 49.926 306.292,48.696 308.879,48.179 309.910 C 47.663 310.941,47.241 312.268,47.241 312.859 C 47.241 313.449,46.893 314.375,46.467 314.917 C 46.041 315.458,45.692 316.169,45.692 316.495 C 45.692 316.822,45.537 317.185,45.348 317.302 C 45.158 317.419,44.887 317.995,44.745 318.583 C 44.384 320.078,43.617 321.781,43.305 321.781 C 43.161 321.781,42.928 322.304,42.788 322.943 C 42.648 323.582,42.372 324.105,42.176 324.105 C 41.980 324.105,41.820 324.491,41.820 324.963 C 41.820 325.436,41.414 326.176,40.918 326.609 C 40.072 327.348,39.240 328.922,36.203 335.528 C 34.435 339.373,32.745 342.992,30.348 348.064 C 29.204 350.486,28.267 352.515,28.267 352.571 C 28.267 352.628,27.119 355.090,25.716 358.041 C 23.259 363.210,22.072 365.857,22.072 366.165 C 22.072 366.246,39.593 366.312,61.009 366.312 L 99.946 366.312 100.941 364.085 C 101.489 362.861,102.873 359.881,104.018 357.463 C 105.162 355.045,106.099 353.011,106.099 352.941 C 106.099 352.872,106.729 351.452,107.500 349.786 C 110.012 344.359,111.190 341.784,112.885 338.016 C 113.803 335.978,115.076 333.190,115.714 331.821 C 116.353 330.452,117.667 327.623,118.634 325.535 C 120.385 321.756,121.117 320.823,123.330 319.547 C 125.148 318.498,276.773 318.510,278.692 319.559 C 281.045 320.845,281.805 322.103,286.926 333.204 C 287.320 334.056,288.788 337.163,290.190 340.109 C 291.592 343.055,292.740 345.540,292.740 345.633 C 292.740 345.797,293.885 348.229,298.739 358.374 C 300.063 361.142,301.453 364.061,301.828 364.860 L 302.508 366.312 341.380 366.312 C 362.759 366.312,380.252 366.171,380.252 365.998 C 380.252 365.826,379.661 364.475,378.939 362.997 C 378.216 361.519,377.063 359.090,376.376 357.599 C 374.543 353.622,373.197 350.736,371.045 346.176 C 369.990 343.940,368.560 340.891,367.867 339.400 C 367.174 337.909,365.495 334.388,364.136 331.576 C 362.777 328.764,361.665 326.320,361.665 326.145 C 361.665 325.969,360.975 324.477,360.132 322.829 C 359.290 321.181,358.483 319.211,358.341 318.452 C 358.199 317.694,357.843 316.981,357.550 316.869 C 357.258 316.756,357.018 316.422,357.018 316.125 C 357.018 315.828,356.863 315.586,356.673 315.586 C 356.483 315.586,356.210 315.114,356.065 314.538 C 355.920 313.962,355.463 313.253,355.048 312.963 C 354.634 312.672,354.395 312.274,354.516 312.076 C 354.638 311.879,354.293 310.831,353.748 309.748 C 353.204 308.664,352.759 307.531,352.759 307.229 C 352.759 306.927,352.585 306.680,352.372 306.680 C 352.159 306.680,351.985 306.480,351.985 306.236 C 351.985 305.992,351.391 304.555,350.666 303.042 C 349.941 301.528,348.621 298.722,347.732 296.805 C 346.844 294.889,345.370 291.752,344.458 289.835 C 343.546 287.919,342.269 285.218,341.620 283.833 C 340.972 282.449,339.728 279.816,338.856 277.982 C 337.984 276.148,337.270 274.449,337.270 274.207 C 337.270 273.964,337.096 273.766,336.883 273.766 C 336.670 273.766,336.496 273.580,336.496 273.354 C 336.496 272.925,335.987 271.782,332.630 264.666 C 331.524 262.323,330.044 259.187,329.341 257.696 C 328.637 256.205,327.278 253.330,326.320 251.307 C 323.188 244.689,321.495 241.092,320.125 238.141 C 319.383 236.544,317.993 233.582,317.037 231.559 C 316.080 229.535,314.734 226.660,314.046 225.169 C 312.564 221.962,309.508 215.495,304.164 204.259 C 302.415 200.580,300.726 196.975,298.361 191.868 C 295.975 186.718,292.665 179.691,289.059 172.120 C 287.943 169.777,286.637 166.989,286.156 165.924 C 285.295 164.016,282.686 158.480,280.116 153.106 C 279.392 151.592,278.800 150.155,278.800 149.911 C 278.800 149.667,278.625 149.468,278.412 149.468 C 278.199 149.468,278.025 149.275,278.025 149.039 C 278.025 148.629,277.505 147.466,274.095 140.249 C 273.259 138.479,271.953 135.691,271.193 134.053 C 269.195 129.748,267.254 125.653,264.128 119.152 C 262.614 116.003,261.375 113.366,261.375 113.294 C 261.375 113.221,260.353 111.006,259.105 108.372 C 257.856 105.737,256.184 102.188,255.389 100.484 C 253.793 97.062,252.193 93.653,249.849 88.674 C 246.592 81.758,244.614 77.556,243.560 75.315 C 242.959 74.037,241.602 71.162,240.545 68.925 C 237.696 62.898,236.980 61.268,236.980 60.815 C 236.980 60.590,236.805 60.407,236.592 60.407 C 236.379 60.407,236.205 60.222,236.205 59.996 C 236.205 59.602,235.193 57.389,231.169 48.984 C 230.150 46.854,228.755 43.892,228.070 42.401 C 227.385 40.910,226.409 38.802,225.900 37.717 C 225.392 36.631,224.976 35.557,224.976 35.329 C 224.976 35.101,224.845 34.856,224.685 34.785 C 224.526 34.714,223.959 33.790,223.427 32.732 C 218.468 22.874,205.920 16.845,195.547 19.336 M204.840 159.553 C 206.512 160.393,207.545 161.563,208.601 163.809 C 210.668 168.206,212.195 171.505,212.986 173.282 C 213.461 174.347,214.523 176.659,215.347 178.420 C 216.170 180.181,216.844 181.733,216.844 181.868 C 216.844 182.004,217.280 182.686,217.812 183.384 C 218.345 184.082,218.780 184.840,218.780 185.068 C 218.780 185.295,219.129 186.132,219.555 186.927 C 219.981 187.722,220.329 188.574,220.329 188.820 C 220.329 189.067,220.591 189.369,220.910 189.491 C 221.229 189.614,221.491 190.155,221.491 190.695 C 221.491 191.234,221.665 191.675,221.878 191.675 C 222.091 191.675,222.265 192.084,222.265 192.585 C 222.265 193.086,222.701 194.315,223.233 195.316 C 223.766 196.318,224.201 197.318,224.201 197.539 C 224.201 197.761,225.247 200.102,226.525 202.742 C 227.803 205.382,228.848 207.628,228.848 207.733 C 228.848 207.839,229.608 209.540,230.536 211.513 C 231.465 213.487,232.619 215.973,233.102 217.038 C 235.471 222.268,236.009 223.445,237.256 226.137 C 237.996 227.735,239.174 230.261,239.874 231.752 C 241.330 234.855,243.222 238.934,244.618 241.980 C 246.557 246.209,245.484 250.433,241.875 252.780 L 240.271 253.824 200.968 253.824 L 161.665 253.824 160.061 252.780 C 156.160 250.243,155.331 246.154,157.708 241.173 C 158.454 239.612,159.627 237.115,160.317 235.624 C 161.006 234.134,162.397 231.171,163.407 229.042 C 164.417 226.912,165.639 224.298,166.121 223.233 C 166.604 222.168,167.776 219.642,168.727 217.619 C 169.678 215.595,170.891 212.982,171.423 211.810 C 171.955 210.639,173.070 208.246,173.901 206.494 C 174.732 204.741,175.411 203.129,175.411 202.912 C 175.411 202.695,175.652 202.517,175.947 202.517 C 176.242 202.517,176.598 202.212,176.738 201.839 C 177.219 200.567,177.918 199.419,178.214 199.419 C 178.376 199.419,178.509 199.070,178.509 198.643 C 178.509 198.217,178.858 197.217,179.284 196.423 C 179.710 195.628,180.058 194.670,180.058 194.294 C 180.058 193.918,180.212 193.611,180.401 193.611 C 180.589 193.611,180.863 192.652,181.009 191.481 C 181.156 190.310,181.423 189.351,181.604 189.351 C 181.785 189.351,182.047 188.829,182.188 188.190 C 182.328 187.551,182.603 187.028,182.799 187.028 C 182.995 187.028,183.156 186.527,183.156 185.914 C 183.156 185.301,183.444 184.560,183.797 184.268 C 184.340 183.818,186.802 178.946,189.546 172.894 C 192.234 166.963,194.881 161.783,195.631 160.983 C 197.980 158.477,201.584 157.918,204.840 159.553 M200.141 186.931 C 199.684 187.943,198.612 190.252,197.760 192.062 C 196.058 195.674,193.787 200.549,191.988 204.453 C 191.350 205.837,190.252 208.190,189.547 209.681 C 188.842 211.171,187.830 213.349,187.298 214.521 C 186.261 216.806,183.408 222.931,181.616 226.718 C 181.012 227.996,179.713 230.784,178.729 232.914 C 177.746 235.044,176.782 237.072,176.586 237.422 C 176.391 237.772,176.337 238.164,176.467 238.293 C 176.810 238.637,225.285 238.582,225.494 238.238 C 225.591 238.078,225.209 236.971,224.645 235.777 C 224.082 234.583,223.109 232.492,222.484 231.130 C 221.859 229.768,220.533 226.912,219.538 224.782 C 218.543 222.652,217.415 220.213,217.031 219.361 C 216.648 218.509,215.403 215.842,214.266 213.433 C 213.128 211.025,212.197 208.993,212.197 208.918 C 212.197 208.786,210.560 205.184,208.320 200.387 C 205.176 193.653,204.066 191.227,204.066 191.086 C 204.066 190.768,201.289 185.092,201.133 185.092 C 201.045 185.092,200.598 185.920,200.141 186.931 " stroke="none" fill="#fbfbfb" fill-rule="evenodd"></path><path id="path2" d="M200.968 238.529 L 175.992 238.731 200.848 238.823 C 217.102 238.884,225.787 238.782,225.944 238.529 C 226.075 238.316,226.129 238.183,226.064 238.234 C 225.998 238.285,214.705 238.417,200.968 238.529 M166.215 334.075 C 185.329 334.131,216.607 334.131,235.721 334.075 C 254.835 334.020,239.197 333.975,200.968 333.975 C 162.740 333.975,147.101 334.020,166.215 334.075 " stroke="none" fill="#7c7c7c" fill-rule="evenodd"></path><path id="path3" d="M199.710 3.371 C 200.189 3.463,200.973 3.463,201.452 3.371 C 201.931 3.279,201.539 3.203,200.581 3.203 C 199.622 3.203,199.230 3.279,199.710 3.371 M206.970 3.854 C 207.713 4.191,209.787 4.411,209.455 4.117 C 209.366 4.039,208.596 3.869,207.744 3.739 C 206.665 3.575,206.430 3.610,206.970 3.854 M225.008 11.326 C 225.097 11.379,225.692 11.859,226.331 12.391 L 227.493 13.359 226.554 12.294 C 226.038 11.709,225.442 11.229,225.231 11.229 C 225.020 11.229,224.919 11.273,225.008 11.326 M229.816 15.489 C 230.865 16.554,231.810 17.425,231.917 17.425 C 232.023 17.425,231.252 16.554,230.203 15.489 C 229.154 14.424,228.209 13.553,228.103 13.553 C 227.996 13.553,228.767 14.424,229.816 15.489 M168.562 18.031 C 167.083 19.744,165.337 22.156,166.198 21.297 C 166.962 20.535,170.748 15.876,170.603 15.876 C 170.504 15.876,169.585 16.846,168.562 18.031 M203.485 18.964 C 204.225 19.291,206.693 19.513,206.357 19.221 C 206.268 19.145,205.411 18.978,204.453 18.851 C 203.290 18.697,202.968 18.735,203.485 18.964 M218.780 26.525 C 220.152 27.909,221.362 29.042,221.468 29.042 C 221.575 29.042,220.539 27.909,219.167 26.525 C 217.795 25.140,216.586 24.008,216.479 24.008 C 216.373 24.008,217.408 25.140,218.780 26.525 M240.105 31.559 C 240.105 31.772,240.354 32.381,240.658 32.914 C 240.963 33.446,241.212 33.708,241.212 33.495 C 241.212 33.282,240.963 32.672,240.658 32.139 C 240.354 31.607,240.105 31.346,240.105 31.559 M261.402 113.262 C 261.402 113.475,261.651 114.085,261.955 114.618 C 262.260 115.150,262.509 115.411,262.509 115.198 C 262.509 114.985,262.260 114.376,261.955 113.843 C 261.651 113.311,261.402 113.049,261.402 113.262 M267.985 127.202 C 267.985 127.415,268.234 128.025,268.538 128.558 C 268.843 129.090,269.092 129.351,269.092 129.138 C 269.092 128.925,268.843 128.316,268.538 127.783 C 268.234 127.251,267.985 126.989,267.985 127.202 M190.189 171.362 C 189.540 172.786,189.664 173.090,190.365 171.795 C 190.693 171.191,190.888 170.624,190.800 170.535 C 190.711 170.447,190.436 170.819,190.189 171.362 M211.875 171.559 C 212.102 172.209,212.359 172.669,212.447 172.581 C 212.638 172.389,211.908 170.378,211.646 170.378 C 211.546 170.378,211.649 170.909,211.875 171.559 M223.723 197.307 C 223.824 197.836,224.035 198.348,224.192 198.445 C 224.348 198.542,224.394 198.188,224.293 197.659 C 224.192 197.130,223.981 196.618,223.824 196.521 C 223.667 196.424,223.622 196.778,223.723 197.307 M227.714 205.808 C 227.714 206.021,227.963 206.631,228.267 207.164 C 228.572 207.696,228.821 207.957,228.821 207.744 C 228.821 207.531,228.572 206.922,228.267 206.389 C 227.963 205.857,227.714 205.595,227.714 205.808 M212.230 208.906 C 212.230 209.119,212.564 209.903,212.972 210.649 C 213.380 211.394,213.714 211.830,213.714 211.617 C 213.714 211.404,213.380 210.620,212.972 209.874 C 212.564 209.129,212.230 208.693,212.230 208.906 M231.623 214.541 C 231.850 215.190,232.107 215.650,232.195 215.562 C 232.387 215.371,231.656 213.359,231.395 213.359 C 231.294 213.359,231.397 213.891,231.623 214.541 M186.317 215.893 C 185.668 217.317,185.792 217.620,186.493 216.326 C 186.821 215.721,187.016 215.154,186.928 215.066 C 186.839 214.977,186.564 215.349,186.317 215.893 M217.259 219.748 C 217.259 219.961,217.508 220.571,217.812 221.104 C 218.117 221.636,218.366 221.897,218.366 221.684 C 218.366 221.471,218.117 220.862,217.812 220.329 C 217.508 219.797,217.259 219.535,217.259 219.748 M183.219 222.475 C 182.570 223.899,182.694 224.203,183.395 222.909 C 183.723 222.304,183.918 221.737,183.830 221.649 C 183.741 221.560,183.466 221.932,183.219 222.475 M178.572 232.543 C 177.923 233.967,178.047 234.271,178.749 232.976 C 179.076 232.372,179.272 231.805,179.183 231.716 C 179.095 231.628,178.820 232.000,178.572 232.543 M243.203 239.497 C 243.203 239.710,243.452 240.319,243.756 240.852 C 244.060 241.384,244.309 241.646,244.309 241.433 C 244.309 241.220,244.060 240.610,243.756 240.077 C 243.452 239.545,243.203 239.284,243.203 239.497 M181.897 253.921 C 192.386 253.978,209.550 253.978,220.039 253.921 C 230.528 253.863,221.946 253.816,200.968 253.816 C 179.990 253.816,171.409 253.863,181.897 253.921 M44.325 318.877 C 44.225 319.197,44.058 319.728,43.954 320.059 C 43.850 320.389,43.916 320.566,44.101 320.452 C 44.287 320.337,44.522 319.806,44.624 319.270 C 44.826 318.212,44.618 317.938,44.325 318.877 M358.476 319.282 C 358.577 319.811,358.788 320.323,358.945 320.420 C 359.102 320.517,359.147 320.163,359.046 319.634 C 358.945 319.105,358.734 318.593,358.577 318.496 C 358.420 318.399,358.375 318.753,358.476 319.282 M163.535 318.974 C 184.370 319.029,218.349 319.029,239.043 318.974 C 259.738 318.918,242.691 318.873,201.162 318.873 C 159.632 318.873,142.700 318.918,163.535 318.974 M282.317 323.911 C 282.317 324.124,282.651 324.908,283.059 325.653 C 283.467 326.399,283.801 326.834,283.801 326.621 C 283.801 326.409,283.467 325.624,283.059 324.879 C 282.651 324.134,282.317 323.698,282.317 323.911 M118.553 325.476 C 117.904 326.900,118.028 327.204,118.729 325.910 C 119.057 325.305,119.252 324.738,119.164 324.650 C 119.075 324.561,118.800 324.933,118.553 325.476 M273.406 340.949 C 273.406 341.162,273.655 341.772,273.959 342.304 C 274.264 342.836,274.513 343.098,274.513 342.885 C 274.513 342.672,274.264 342.062,273.959 341.530 C 273.655 340.997,273.406 340.736,273.406 340.949 M290.838 342.110 C 290.838 342.323,291.258 343.282,291.772 344.240 C 292.285 345.198,292.705 345.808,292.705 345.595 C 292.705 345.382,292.285 344.424,291.772 343.466 C 291.258 342.507,290.838 341.897,290.838 342.110 M300.511 362.633 C 300.511 362.846,300.760 363.456,301.065 363.988 C 301.369 364.521,301.618 364.782,301.618 364.569 C 301.618 364.356,301.369 363.746,301.065 363.214 C 300.760 362.682,300.511 362.420,300.511 362.633 M4.891 366.409 C 4.582 367.562,4.631 371.751,4.964 372.590 C 5.109 372.954,5.227 371.517,5.227 369.395 C 5.227 365.162,5.227 365.155,4.891 366.409 M285.410 366.505 C 285.410 366.718,285.659 367.328,285.963 367.861 C 286.268 368.393,286.517 368.654,286.517 368.441 C 286.517 368.228,286.268 367.619,285.963 367.086 C 285.659 366.554,285.410 366.292,285.410 366.505 M114.303 371.558 C 113.137 373.959,113.267 374.295,114.469 371.985 C 115.006 370.953,115.379 370.042,115.298 369.961 C 115.217 369.880,114.770 370.599,114.303 371.558 M290.041 376.648 C 290.034 376.903,290.421 377.521,290.900 378.023 C 291.379 378.524,291.578 378.664,291.342 378.335 C 291.105 378.005,290.719 377.386,290.482 376.960 C 290.246 376.534,290.047 376.394,290.041 376.648 M393.784 378.219 L 392.449 379.671 393.901 378.336 C 395.253 377.094,395.531 376.767,395.236 376.767 C 395.171 376.767,394.518 377.420,393.784 378.219 M38.596 381.704 C 50.772 381.760,70.810 381.760,83.126 381.704 C 95.442 381.647,85.479 381.601,60.987 381.601 C 36.496 381.601,26.419 381.647,38.596 381.704 M318.944 381.704 C 331.120 381.760,351.159 381.760,363.475 381.704 C 375.790 381.647,365.828 381.601,341.336 381.601 C 316.844 381.601,306.768 381.647,318.944 381.704 " stroke="none" fill="#9e9e9e" fill-rule="evenodd"></path><path id="path4" d="M196.225 3.765 C 196.917 3.851,198.049 3.851,198.742 3.765 C 199.434 3.679,198.867 3.609,197.483 3.609 C 196.099 3.609,195.532 3.679,196.225 3.765 M202.427 3.766 C 203.123 3.852,204.169 3.850,204.750 3.762 C 205.332 3.673,204.763 3.603,203.485 3.605 C 202.207 3.607,201.731 3.679,202.427 3.766 M229.622 15.682 C 230.345 16.428,231.023 17.038,231.130 17.038 C 231.236 17.038,230.732 16.428,230.010 15.682 C 229.287 14.937,228.609 14.327,228.502 14.327 C 228.396 14.327,228.900 14.937,229.622 15.682 M198.927 18.479 C 199.614 18.564,200.834 18.566,201.637 18.482 C 202.440 18.398,201.878 18.328,200.387 18.326 C 198.896 18.325,198.239 18.393,198.927 18.479 M218.974 26.331 C 220.023 27.396,220.968 28.267,221.074 28.267 C 221.181 28.267,220.410 27.396,219.361 26.331 C 218.312 25.266,217.367 24.395,217.260 24.395 C 217.154 24.395,217.925 25.266,218.974 26.331 M200.489 159.035 C 200.970 159.127,201.667 159.124,202.037 159.027 C 202.408 158.930,202.014 158.854,201.162 158.859 C 200.310 158.863,200.007 158.942,200.489 159.035 M189.802 172.911 C 189.153 174.335,189.277 174.639,189.978 173.344 C 190.306 172.740,190.501 172.173,190.413 172.084 C 190.324 171.996,190.049 172.368,189.802 172.911 M201.355 185.092 C 201.781 185.518,202.130 186.070,202.130 186.318 C 202.130 186.567,202.240 186.659,202.376 186.524 C 202.686 186.214,201.469 184.318,200.959 184.318 C 200.751 184.318,200.929 184.666,201.355 185.092 M183.110 186.169 C 182.982 186.938,183.039 187.300,183.254 187.085 C 183.449 186.890,183.544 186.318,183.465 185.814 C 183.343 185.039,183.288 185.094,183.110 186.169 M180.922 192.449 C 180.922 193.195,181.002 193.500,181.099 193.127 C 181.197 192.754,181.197 192.144,181.099 191.772 C 181.002 191.399,180.922 191.704,180.922 192.449 M221.847 193.127 C 222.032 194.464,222.059 194.491,222.187 193.467 C 222.263 192.855,222.173 192.202,221.986 192.015 C 221.791 191.820,221.732 192.295,221.847 193.127 M176.089 202.725 C 175.122 204.018,175.248 204.379,176.230 203.130 C 176.680 202.557,176.985 202.028,176.908 201.954 C 176.830 201.879,176.462 202.226,176.089 202.725 M228.101 207.357 C 228.101 207.570,228.350 208.180,228.654 208.712 C 228.959 209.245,229.208 209.506,229.208 209.293 C 229.208 209.080,228.959 208.470,228.654 207.938 C 228.350 207.406,228.101 207.144,228.101 207.357 M176.040 237.188 C 175.907 237.534,175.814 238.108,175.832 238.463 C 175.850 238.819,176.019 238.595,176.206 237.967 C 176.571 236.745,176.442 236.140,176.040 237.188 M156.465 246.112 C 156.480 246.946,156.640 247.977,156.821 248.403 C 157.026 248.885,157.068 248.373,156.933 247.047 C 156.673 244.497,156.427 244.005,156.465 246.112 M245.209 246.079 C 245.213 246.931,245.293 247.234,245.385 246.753 C 245.478 246.271,245.474 245.574,245.377 245.204 C 245.280 244.833,245.205 245.227,245.209 246.079 M157.516 249.956 C 157.735 250.384,158.323 251.080,158.822 251.502 C 159.697 252.242,159.695 252.229,158.767 251.110 C 157.225 249.253,157.095 249.134,157.516 249.956 M181.704 253.533 C 192.299 253.591,209.637 253.591,220.232 253.533 C 230.828 253.476,222.159 253.429,200.968 253.429 C 179.777 253.429,171.108 253.476,181.704 253.533 M46.823 312.584 C 46.708 313.417,46.767 313.891,46.962 313.696 C 47.149 313.510,47.239 312.856,47.163 312.245 C 47.035 311.221,47.008 311.248,46.823 312.584 M121.206 321.582 C 120.487 322.324,119.973 322.991,120.065 323.064 C 120.157 323.136,120.819 322.529,121.536 321.714 C 123.165 319.862,122.954 319.778,121.206 321.582 M22.909 327.800 C 22.260 329.224,22.384 329.527,23.085 328.233 C 23.413 327.628,23.609 327.061,23.520 326.973 C 23.432 326.884,23.157 327.256,22.909 327.800 M301.443 365.440 L 302.053 366.699 341.323 366.699 C 362.922 366.699,380.674 366.568,380.773 366.409 C 380.871 366.249,363.195 366.163,341.493 366.219 C 319.790 366.274,302.033 366.176,302.033 366.002 C 302.033 365.828,301.763 365.347,301.433 364.934 C 300.904 364.270,300.905 364.329,301.443 365.440 M21.551 366.409 C 21.649 366.568,39.396 366.699,60.987 366.699 C 82.579 366.699,100.325 366.568,100.424 366.409 C 100.523 366.249,82.776 366.118,60.987 366.118 C 39.198 366.118,21.452 366.249,21.551 366.409 M397.395 369.409 C 397.395 370.368,397.470 370.760,397.563 370.281 C 397.655 369.802,397.655 369.017,397.563 368.538 C 397.470 368.059,397.395 368.451,397.395 369.409 M37.851 381.316 C 50.470 381.373,71.118 381.373,83.737 381.316 C 96.355 381.260,86.031 381.213,60.794 381.213 C 35.557 381.213,25.232 381.260,37.851 381.316 M318.587 381.316 C 331.205 381.373,351.854 381.373,364.472 381.316 C 377.091 381.260,366.767 381.213,341.530 381.213 C 316.292 381.213,305.968 381.260,318.587 381.316 " stroke="none" fill="#747474" fill-rule="evenodd"></path></g></svg>